<svg xmlns="http://www.w3.org/2000/svg" width="123" height="122" fill="none"><path fill="#F2F2F2" d="M30.529 8.007h-16.96v53.02h13.568v7.953H13.568V122H0V.053h30.529v7.954Z"/><path fill="#F2F2F2" d="M30.529 8.007h-16.96v53.02h13.568v7.953H13.568V122H0V.053h30.529v7.954ZM85.687 58.322c0 3.977-.848 6.738-2.544 8.285-1.696 1.546-4.24 2.32-7.632 2.32 1.696 0 3.18.303 4.452.91 1.272.608 2.332 1.409 3.18 2.403a10.115 10.115 0 0 1 1.908 3.397 12.22 12.22 0 0 1 .636 3.893v42.417H72.12V76.879c0-1.325-.389-2.347-1.166-3.065-.778-.718-1.802-1.243-3.074-1.574-1.272-.331-2.721-.525-4.347-.58a146.823 146.823 0 0 0-4.982-.083v50.37H44.982V0H58.55c3.392 0 6.714.083 9.965.249 3.25.11 6.148.58 8.692 1.408 2.544.828 4.593 2.154 6.148 3.976 1.555 1.768 2.332 4.308 2.332 7.622v45.067ZM72.12 13.255c0-1.325-.248-2.347-.742-3.065-.424-.718-1.166-1.243-2.226-1.574-1.06-.332-2.474-.525-4.24-.58a201.487 201.487 0 0 0-6.36-.083v58.322c1.695 0 3.356-.027 4.981-.083 1.626-.055 3.075-.248 4.347-.58 1.272-.33 2.296-.855 3.074-1.573.777-.718 1.166-1.74 1.166-3.066V13.255ZM123 .046l-6.784 100.739h-6.784L102.647.046H123Zm-3.392 108.692v13.255H106.04v-13.255h13.568Z"/></svg>