<svg width="736" height="207" viewBox="0 0 736 207" fill="none" xmlns="http://www.w3.org/2000/svg">
<path d="M51.75 14.0521H23V103.795H46V117.257H23V207H0V0.590057H51.75V14.0521ZM132.25 207H109.25L106.375 148.667H89.305L86.25 207H63.25L80.5 0.590057H115L132.25 207ZM97.75 9.56505L90.5 116.5L89.305 135.205H106.375L97.75 9.56505ZM218.5 99.3081H195.5V25.1289C195.5 22.8859 195.141 21.0629 194.422 19.6609C193.823 18.1649 192.984 17.0429 191.906 16.2949C190.828 15.4539 189.57 14.8929 188.133 14.6119C186.788 14.2347 185.397 14.0462 184 14.0519C182.562 14.0519 181.125 14.2389 179.687 14.6119C178.376 14.8896 177.147 15.4655 176.094 16.2949C175.016 17.0429 174.117 18.1649 173.398 19.6609C172.799 21.0629 172.5 22.8859 172.5 25.1289V180.077C172.5 181.199 172.56 182.554 172.68 184.144C172.799 185.639 173.219 187.088 173.937 188.49C174.656 189.893 175.794 191.108 177.352 192.136C178.909 193.071 181.125 193.538 184 193.538C186.875 193.538 189.091 193.071 190.648 192.136C192.206 191.108 193.344 189.893 194.062 188.49C194.781 187.088 195.2 185.639 195.32 184.144C195.44 182.554 195.5 181.199 195.5 180.077V126.231H218.5V180.077C218.5 181.199 218.32 183.255 217.961 186.247C217.602 189.145 216.344 192.136 214.187 195.221C212.031 198.306 208.617 201.017 203.945 203.354C199.273 205.785 192.625 207 184 207C175.375 207 168.727 205.785 164.055 203.354C159.383 201.017 155.969 198.306 153.812 195.221C151.656 192.136 150.398 189.145 150.039 186.247C149.68 183.255 149.5 181.199 149.5 180.077V25.1299C149.5 20.8299 150.518 17.1359 152.555 14.0519C154.559 10.9047 157.265 8.26464 160.461 6.33895C163.815 4.37595 167.529 2.92695 171.602 1.99195C175.668 1.05784 179.828 0.587511 184 0.589948C188.432 0.589948 192.685 1.10395 196.758 2.13295C200.95 3.16095 204.664 4.70295 207.898 6.75995C211.133 8.81695 213.708 11.3869 215.625 14.4719C217.542 17.5569 218.5 21.1099 218.5 25.1289V99.3081ZM304.75 0.590057V14.0521H281.75V207H258.75V14.0521H235.75V0.590057H304.75ZM391 180.077C391 181.199 390.82 183.255 390.461 186.247C390.102 189.145 388.844 192.136 386.688 195.221C384.531 198.306 381.117 201.017 376.445 203.354C371.773 205.785 365.125 207 356.5 207C347.875 207 341.227 205.785 336.555 203.354C331.883 201.017 328.469 198.306 326.312 195.221C324.156 192.136 322.898 189.145 322.539 186.247C322.18 183.255 322 181.199 322 180.077V25.1291C322 24.3811 322.06 23.2591 322.18 21.7641C322.299 20.2681 322.659 18.6321 323.258 16.8561C323.857 14.9861 324.875 13.1161 326.312 11.2471C327.75 9.28411 329.727 7.50711 332.242 5.91911C334.758 4.32911 337.992 3.06711 341.945 2.13211C345.898 1.10411 350.75 0.590109 356.5 0.590109C362.25 0.590109 367.102 1.10411 371.055 2.13211C375.008 3.06711 378.242 4.32911 380.758 5.91911C383.273 7.50811 385.25 9.28411 386.688 11.2471C388.125 13.1171 389.143 14.9871 389.742 16.8561C390.341 18.6321 390.701 20.2681 390.82 21.7641C390.94 23.2591 391 24.3811 391 25.1291V180.077ZM345 180.077C345 181.199 345.06 182.554 345.18 184.144C345.299 185.639 345.719 187.088 346.438 188.49C347.156 189.893 348.294 191.108 349.852 192.136C351.409 193.071 353.625 193.539 356.5 193.539C359.375 193.539 361.591 193.071 363.148 192.136C364.706 191.108 365.844 189.893 366.562 188.49C367.281 187.088 367.701 185.639 367.82 184.144C367.94 182.554 368 181.199 368 180.077V25.1291C368 24.0071 367.94 22.7921 367.82 21.4831C367.701 20.1751 367.281 19.0061 366.562 17.9781C365.844 16.8561 364.706 15.9211 363.148 15.1731C361.591 14.4251 359.375 14.0511 356.5 14.0511C353.625 14.0511 351.409 14.4251 349.852 15.1731C348.294 15.9211 347.156 16.8561 346.438 17.9781C345.719 19.0061 345.299 20.1751 345.18 21.4831C345.065 22.6951 345.005 23.9117 345 25.1291V180.077ZM483 99.3081C483 106.039 481.562 110.713 478.687 113.33C475.812 115.948 471.5 117.257 465.75 117.257C468.625 117.257 471.141 117.771 473.297 118.799C475.453 119.827 477.25 121.183 478.687 122.866C480.128 124.554 481.227 126.507 481.922 128.615C482.636 130.739 483.001 132.964 483 135.205V207H460V130.718C460 128.475 459.341 126.745 458.023 125.53C456.706 124.315 454.969 123.427 452.812 122.866C450.656 122.305 448.2 121.978 445.445 121.884C442.631 121.79 439.816 121.743 437 121.744V207H414V0.590057H437C442.75 0.590057 448.38 0.730057 453.891 1.01106C459.401 1.19806 464.312 1.99306 468.625 3.39506C472.937 4.79706 476.411 7.04105 479.047 10.1251C481.682 13.1171 483 17.4171 483 23.0261V99.3081ZM460 23.0261C460 20.7831 459.581 19.0531 458.742 17.8381C458.023 16.6231 456.766 15.7351 454.969 15.1741C453.172 14.6131 450.776 14.2861 447.781 14.1921C444.906 14.0991 441.312 14.0521 437 14.0521V112.77C439.875 112.77 442.69 112.723 445.445 112.629C448.2 112.536 450.656 112.209 452.812 111.648C454.969 111.087 456.706 110.199 458.023 108.984C459.341 107.768 460 106.039 460 103.795V23.0261ZM531.875 0.590057V207H508.875V0.590057H531.875ZM621 207H598L595.125 148.667H578.055L575 207H552L569.25 0.590057H603.75L621 207ZM586.5 9.56505L579.5 116.5L578.055 135.205H595.125L586.5 9.56505ZM661.25 0.590057V193.538H684.25V207H638.25V0.590057H661.25ZM736 0.590057L724.5 171.103H713L701.5 0.590057H736ZM730.25 184.564V207H707.25V184.564H730.25Z" fill="#393632"/>
</svg>
