<svg xmlns="http://www.w3.org/2000/svg" width="736" height="213" fill="none"><path fill="#393632" d="M51.75 20.052H23v89.743h23v13.462H23V213H0V6.59h51.75v13.462ZM132.25 213h-23l-2.875-58.333h-17.07L86.25 213h-23L80.5 6.59H115L132.25 213ZM97.75 15.565 90.5 122.5l-1.195 18.705h17.07L97.75 15.565ZM218.5 105.308h-23V29.026c0-2.243-.359-4.066-1.078-5.468-.599-1.496-1.438-2.618-2.516-3.366-1.078-.841-2.336-1.402-3.773-1.683a15.073 15.073 0 0 0-4.133-.56c-1.438 0-2.875.187-4.313.56a8.727 8.727 0 0 0-3.593 1.683c-1.078.748-1.977 1.87-2.696 3.366-.599 1.402-.898 3.225-.898 5.468v157.051c0 1.122.06 2.477.18 4.067.119 1.495.539 2.944 1.257 4.346.719 1.403 1.857 2.618 3.415 3.646 1.557.935 3.773 1.402 6.648 1.402 2.875 0 5.091-.467 6.648-1.402 1.558-1.028 2.696-2.243 3.414-3.646.719-1.402 1.138-2.851 1.258-4.346.12-1.59.18-2.945.18-4.067v-53.846h23v53.846c0 1.122-.18 3.178-.539 6.17-.359 2.898-1.617 5.889-3.774 8.974-2.156 3.085-5.57 5.796-10.242 8.133C199.273 211.785 192.625 213 184 213s-15.273-1.215-19.945-3.646c-4.672-2.337-8.086-5.048-10.243-8.133-2.156-3.085-3.414-6.076-3.773-8.974-.359-2.992-.539-5.048-.539-6.17V29.027c0-4.3 1.018-7.994 3.055-11.078a24.148 24.148 0 0 1 7.906-7.713c3.354-1.963 7.068-3.412 11.141-4.347A55.234 55.234 0 0 1 184 4.487c4.432 0 8.685.514 12.758 1.543 4.192 1.028 7.906 2.57 11.14 4.627 3.235 2.057 5.81 4.627 7.727 7.712 1.917 3.085 2.875 6.638 2.875 10.657v76.282ZM304.75 6.59v13.462h-23V213h-23V20.052h-23V6.59h69ZM391 186.077c0 1.122-.18 3.178-.539 6.17-.359 2.898-1.617 5.889-3.773 8.974-2.157 3.085-5.571 5.796-10.243 8.133-4.672 2.431-11.32 3.646-19.945 3.646s-15.273-1.215-19.945-3.646c-4.672-2.337-8.086-5.048-10.243-8.133-2.156-3.085-3.414-6.076-3.773-8.974-.359-2.992-.539-5.048-.539-6.17V24.539c0-.748.06-1.87.18-3.365.119-1.496.479-3.132 1.078-4.908.599-1.87 1.617-3.74 3.054-5.609 1.438-1.963 3.415-3.74 5.93-5.328 2.516-1.59 5.75-2.852 9.703-3.787C345.898.514 350.75 0 356.5 0s10.602.514 14.555 1.542c3.953.935 7.187 2.197 9.703 3.787 2.515 1.589 4.492 3.365 5.93 5.328 1.437 1.87 2.455 3.74 3.054 5.609.599 1.776.959 3.412 1.078 4.908.12 1.495.18 2.617.18 3.365v161.538Zm-46 0c0 1.122.06 2.477.18 4.067.119 1.495.539 2.944 1.258 4.346.718 1.403 1.856 2.618 3.414 3.646 1.557.935 3.773 1.403 6.648 1.403 2.875 0 5.091-.468 6.648-1.403 1.558-1.028 2.696-2.243 3.414-3.646.719-1.402 1.139-2.851 1.258-4.346.12-1.59.18-2.945.18-4.067V24.539c0-1.122-.06-2.337-.18-3.646-.119-1.308-.539-2.477-1.258-3.505-.718-1.122-1.856-2.057-3.414-2.805-1.557-.748-3.773-1.122-6.648-1.122-2.875 0-5.091.374-6.648 1.122-1.558.748-2.696 1.683-3.414 2.805-.719 1.028-1.139 2.197-1.258 3.505a40.102 40.102 0 0 0-.18 3.646v161.538ZM483 105.308c0 6.731-1.438 11.405-4.313 14.022-2.875 2.618-7.187 3.927-12.937 3.927 2.875 0 5.391.514 7.547 1.542 2.156 1.028 3.953 2.384 5.39 4.067a17.103 17.103 0 0 1 3.235 5.749 20.649 20.649 0 0 1 1.078 6.59V213h-23v-76.282c0-2.243-.659-3.973-1.977-5.188-1.317-1.215-3.054-2.103-5.211-2.664-2.156-.561-4.612-.888-7.367-.982a250.36 250.36 0 0 0-8.445-.14V213h-23V6.59h23c5.75 0 11.38.14 16.891.421 5.51.187 10.421.982 14.734 2.384 4.312 1.402 7.786 3.646 10.422 6.73 2.635 2.992 3.953 7.292 3.953 12.901v76.282Zm-23-76.282c0-2.243-.419-3.973-1.258-5.188-.719-1.215-1.976-2.103-3.773-2.664-1.797-.561-4.193-.888-7.188-.982-2.875-.093-6.469-.14-10.781-.14v98.718c2.875 0 5.69-.047 8.445-.141 2.755-.093 5.211-.42 7.367-.981 2.157-.561 3.894-1.449 5.211-2.664 1.318-1.216 1.977-2.945 1.977-5.189V29.026ZM531.875 6.59V213h-23V6.59h23ZM621 213h-23l-2.875-58.333h-17.07L575 213h-23L569.25 6.59h34.5L621 213ZM586.5 15.565l-7 106.935-1.445 18.705h17.07L586.5 15.565ZM661.25 6.59v192.948h23V213h-46V6.59h23ZM736 6.59l-11.5 170.513H713L701.5 6.59H736Zm-5.75 183.974V213h-23v-22.436h23Z"/></svg>