<svg width="209" height="208" viewBox="0 0 209 208" fill="none" xmlns="http://www.w3.org/2000/svg">
<path d="M52 14.4615H23.25V104.205H46.25V117.666H23.25V162.538V207.409H0.25V1H52V14.4615Z" fill="#393632"/>
<path d="M52 14.4615H23.25V104.205H46.25V117.666H23.25V162.538V207.409H0.25V1H52V14.4615Z" fill="#393632"/>
<path d="M145.5 99.6271C145.5 106.358 144.062 111.032 141.188 113.649C138.312 116.267 134 117.576 128.25 117.576C131.125 117.576 133.641 118.09 135.797 119.118C137.953 120.146 139.75 121.502 141.188 123.185C142.625 124.867 143.703 126.784 144.422 128.934C145.141 131.084 145.5 133.281 145.5 135.524V207.319H122.5V131.037C122.5 128.794 121.841 127.064 120.523 125.849C119.206 124.634 117.469 123.746 115.312 123.185C113.156 122.624 110.701 122.297 107.945 122.203C105.19 122.11 102.375 122.063 99.5 122.063V207.319H76.5V0.909485H99.5C105.25 0.909485 110.88 1.04969 116.391 1.33014C121.901 1.5171 126.812 2.31175 131.125 3.71399C135.437 5.11623 138.911 7.35978 141.547 10.4447C144.182 13.4361 145.5 17.7363 145.5 23.3453V99.6271ZM122.5 23.3453C122.5 21.1017 122.081 19.3723 121.242 18.157C120.523 16.9417 119.266 16.0536 117.469 15.4927C115.672 14.9318 113.276 14.6047 110.281 14.5112C107.406 14.4177 103.813 14.371 99.5 14.371V113.089C102.375 113.089 105.19 113.042 107.945 112.948C110.701 112.855 113.156 112.528 115.312 111.967C117.469 111.406 119.206 110.518 120.523 109.302C121.841 108.087 122.5 106.358 122.5 104.114V23.3453Z" fill="#393632"/>
<path d="M208.75 0.987793L197.25 171.5H185.75L174.25 0.987793H208.75ZM203 184.961V207.397H180V184.961H203Z" fill="#393632"/>
</svg>
