<svg width="211" height="70" fill="none" xmlns="http://www.w3.org/2000/svg">
  <path
    fill="#1C1C1C"
    d="M14.836 5.722H6.594v32.994h6.593v4.95H6.595V68.35H0V.773h14.836v4.95ZM37.914 68.35H31.32l-.824-21.446h-4.894l-.875 21.446h-6.594L23.078.773h9.89l4.946 67.577Zm-9.89-64.277-1.649 39.593-.773-1.71h4.894L28.023 4.072ZM62.64 37.067h-6.593V9.022c0-.825-.103-1.495-.31-2.01-.17-.55-.411-.963-.72-1.238-.31-.31-.67-.516-1.082-.619a3.438 3.438 0 0 0-1.185-.206c-.412 0-.824.069-1.236.206-.378.103-.722.31-1.03.619-.31.275-.567.687-.773 1.237-.172.516-.258 1.186-.258 2.01v51.08c0 .413.017.912.052 1.496.034.55.154 1.082.36 1.598s.532.962.979 1.34c.446.344 1.082.516 1.906.516.824 0 1.46-.172 1.906-.516.446-.378.773-.824.979-1.34a5.144 5.144 0 0 0 .36-1.598c.035-.584.052-1.083.052-1.495V46.965h6.594v13.137c0 .412-.052 1.168-.155 2.268-.103 1.066-.464 2.165-1.082 3.3-.618 1.134-1.597 2.13-2.936 2.99-1.34.893-3.245 1.34-5.718 1.34s-4.379-.447-5.718-1.34c-1.34-.86-2.318-1.856-2.936-2.99-.618-1.135-.98-2.234-1.082-3.3-.103-1.1-.155-1.856-.155-2.268V9.022c0-1.581.292-2.939.876-4.073.584-1.168 1.34-2.114 2.267-2.835A9.961 9.961 0 0 1 49.196.516 12.527 12.527 0 0 1 52.75 0c1.27 0 2.49.189 3.657.567a9.516 9.516 0 0 1 3.194 1.701 8.233 8.233 0 0 1 2.215 2.836c.55 1.134.825 2.44.825 3.918v28.045ZM87.367.773v4.95h-6.594V68.35H74.18V5.722h-6.594V.773h19.781ZM112.094 60.102c0 .412-.052 1.168-.155 2.268-.103 1.066-.463 2.165-1.082 3.3-.618 1.134-1.597 2.13-2.936 2.99-1.339.893-3.245 1.34-5.718 1.34-2.472 0-4.379-.447-5.718-1.34-1.34-.86-2.318-1.856-2.936-2.99-.618-1.135-.979-2.234-1.082-3.3-.103-1.1-.154-1.856-.154-2.268V9.022c0-.275.017-.688.051-1.237a9.47 9.47 0 0 1 .31-1.805 7.595 7.595 0 0 1 .875-2.062c.412-.722.979-1.375 1.7-1.959.721-.584 1.648-1.048 2.782-1.392C99.163.19 100.555 0 102.203 0c1.649 0 3.039.189 4.173.567 1.133.344 2.06.808 2.781 1.392.722.584 1.288 1.237 1.7 1.959.413.687.704 1.375.876 2.062.172.653.275 1.255.309 1.805.035.55.052.962.052 1.237v51.08Zm-13.188 0c0 .412.017.91.052 1.495.034.55.154 1.082.36 1.598s.533.962.979 1.34c.447.344 1.082.516 1.906.516.824 0 1.46-.172 1.906-.516.447-.378.773-.824.979-1.34a5.135 5.135 0 0 0 .36-1.598c.035-.584.052-1.083.052-1.495V9.022c0-.413-.017-.86-.052-1.34a3.12 3.12 0 0 0-.36-1.29c-.206-.412-.532-.756-.979-1.03-.446-.275-1.082-.413-1.906-.413-.824 0-1.459.138-1.906.413-.446.274-.773.618-.979 1.03a3.123 3.123 0 0 0-.36 1.29c-.035.48-.052.927-.052 1.34v51.08ZM138.469 37.067c0 2.474-.412 4.193-1.237 5.155-.824.962-2.06 1.444-3.709 1.444.825 0 1.546.189 2.164.567a4.933 4.933 0 0 1 1.545 1.495c.413.618.722 1.323.928 2.113a9.57 9.57 0 0 1 .309 2.423V68.35h-6.594V48.615c0-.825-.189-1.461-.567-1.908-.377-.447-.875-.773-1.494-.98-.618-.206-1.322-.326-2.112-.36a55.628 55.628 0 0 0-2.421-.052V68.35h-6.594V.773h6.594c1.649 0 3.263.052 4.843.155 1.579.069 2.987.36 4.224.876a6.55 6.55 0 0 1 2.987 2.475c.756 1.1 1.134 2.68 1.134 4.743v28.045Zm-6.594-28.045c0-.825-.12-1.46-.361-1.908-.206-.446-.566-.773-1.081-.98-.516-.205-1.202-.326-2.061-.36a76.459 76.459 0 0 0-3.091-.052v36.294c.824 0 1.632-.017 2.421-.052.79-.034 1.494-.154 2.112-.36.619-.207 1.117-.533 1.494-.98.378-.447.567-1.083.567-1.908V9.022ZM152.48.773V68.35h-6.593V.773h6.593ZM178.031 68.35h-6.593l-.825-21.446h-4.894l-.875 21.446h-6.594L163.195.773h9.891l4.945 67.577Zm-9.89-64.277-1.649 39.593-.773-1.71h4.894l-2.472-37.883ZM189.57.773v62.628h6.594v4.95h-13.187V.772h6.593ZM211 .773l-3.297 54.38h-3.297L201.109.773H211Zm-1.648 59.329v8.248h-6.594v-8.248h6.594Z"
  />
</svg>