<svg width="360" height="407" viewBox="0 0 360 407" fill="none" xmlns="http://www.w3.org/2000/svg">
<path d="M-59.0645 139.299C-38.0809 147.924 -18.3417 160.52 -0.795363 176.481C40.6185 214.464 44.5012 250.005 63.6535 252.096C93.2479 255.324 92.213 171.322 147.32 147.708C187.737 130.383 238.529 154.06 250.287 159.547C296.151 180.922 308.782 211.747 337.049 207.342C357.733 204.144 359.881 186.277 390.332 173.183C411.531 164.068 431.831 163.542 445.833 164.558" stroke="#393632" stroke-opacity="0.2" stroke-miterlimit="10"/>
<path d="M-58.3066 142.826C-37.3205 151.455 -17.5785 164.053 -0.0280468 180.014C41.3883 218.006 45.2685 253.539 64.4137 255.631C94.0152 258.857 92.9802 174.855 148.08 151.244C188.506 133.924 239.298 157.601 251.054 163.081C296.918 184.456 309.542 215.283 337.816 210.875C358.5 207.677 360.641 189.812 391.099 176.716C412.306 167.599 432.598 167.075 446.6 168.091" stroke="#393632" stroke-opacity="0.2" stroke-miterlimit="10"/>
<path d="M-57.5508 146.354C-36.5636 154.98 -16.8211 167.578 0.727816 183.541C42.1441 221.533 46.0244 257.066 65.1767 259.157C94.7498 262.391 93.7431 178.381 148.843 154.769C189.262 137.451 240.054 161.128 251.81 166.608C297.676 187.991 310.305 218.808 338.572 214.403C359.255 211.204 361.402 193.33 391.853 180.236C413.059 171.119 433.351 170.595 447.353 171.611" stroke="#393632" stroke-opacity="0.2" stroke-miterlimit="10"/>
<path d="M-56.7842 149.877C-35.799 158.509 -16.0585 171.11 1.48976 187.074C42.906 225.066 46.7863 260.599 65.9315 262.691C95.5329 265.917 94.498 181.916 149.598 158.304C190.024 140.984 240.816 164.661 252.572 170.141C298.438 191.524 311.059 222.343 339.334 217.935C360.017 214.737 362.157 196.864 392.614 183.768C413.821 174.652 434.113 174.128 448.115 175.143" stroke="#393632" stroke-opacity="0.2" stroke-miterlimit="10"/>
<path d="M-56.0332 153.406C-35.0471 162.036 -15.305 174.633 2.24539 190.594C43.6688 228.584 47.5444 264.127 66.6942 266.21C96.2886 269.438 95.2607 185.434 150.361 161.822C190.787 144.502 241.572 168.181 253.335 173.659C299.194 195.044 311.822 225.861 340.09 221.455C360.773 218.257 362.919 200.382 393.37 187.288C414.577 178.172 434.871 177.656 448.871 178.663" stroke="#393632" stroke-opacity="0.2" stroke-miterlimit="10"/>
<path d="M-55.2715 156.932C-34.2863 165.564 -14.5445 178.161 3.00727 194.12C44.4237 232.112 48.3064 267.653 67.4492 269.738C97.0296 272.97 96.0158 188.961 151.113 165.315C191.532 147.998 242.324 171.675 254.08 177.155C299.946 198.538 312.568 229.357 340.843 224.949C361.526 221.751 363.665 203.878 394.123 190.782C415.33 181.665 435.624 181.149 449.631 182.155" stroke="#393632" stroke-opacity="0.2" stroke-miterlimit="10"/>
<path d="M-54.5029 160.462C-33.5177 169.095 -13.7783 181.7 3.76634 197.669C45.1896 235.659 49.0653 271.201 68.2151 273.284C97.8119 276.52 96.784 192.517 151.884 168.905C192.307 151.577 243.092 175.256 254.855 180.734C300.714 202.119 313.343 232.936 341.61 228.53C362.293 225.332 364.44 207.457 394.891 194.363C416.099 185.255 436.391 184.731 450.391 185.738" stroke="#393632" stroke-opacity="0.2" stroke-miterlimit="10"/>
<path d="M-53.7627 163.961C-32.7755 172.587 -13.033 185.185 4.5159 201.149C45.9297 239.133 49.8125 274.673 68.9577 276.766C98.5591 279.992 97.5241 195.99 152.631 172.376C193.048 155.051 243.84 178.728 255.598 184.216C301.462 205.59 314.083 236.41 342.36 232.01C363.044 228.812 365.19 210.937 395.643 197.851C416.842 188.736 437.135 188.212 451.144 189.226" stroke="#393632" stroke-opacity="0.2" stroke-miterlimit="10"/>
<path d="M-53 167.519C-32.0116 176.147 -12.2671 188.743 5.28578 204.705C46.6997 242.689 50.5754 278.232 69.7277 280.323C99.308 283.554 98.2942 199.546 153.387 175.91C193.811 158.582 244.596 182.262 256.361 187.747C302.218 209.124 314.849 239.95 343.116 235.544C363.8 232.346 365.948 214.479 396.399 201.385C417.606 192.268 437.898 191.744 451.9 192.76" stroke="#393632" stroke-opacity="0.2" stroke-miterlimit="10"/>
<path d="M-52.2227 171.038C-31.2358 179.678 -11.4951 192.288 6.05147 208.261C47.4677 246.253 51.3479 281.785 70.5001 283.876C100.094 287.104 99.0595 203.102 154.166 179.489C194.583 162.163 245.375 185.84 257.133 191.328C302.996 212.703 315.62 243.53 343.895 239.122C364.578 235.924 366.727 218.057 397.178 204.963C418.377 195.849 438.669 195.325 452.678 196.338" stroke="#393632" stroke-opacity="0.2" stroke-miterlimit="10"/>
<path d="M-51.4785 174.554C-30.4933 183.186 -10.7517 195.783 6.80008 211.741C48.2164 249.733 52.0967 285.266 71.2418 287.359C100.836 290.587 99.8083 206.583 154.908 182.971C195.334 165.651 246.119 189.331 257.882 194.808C303.739 216.185 316.37 247.01 344.644 242.603C365.321 239.406 367.47 221.54 397.928 208.444C419.134 199.327 439.426 198.803 453.428 199.819" stroke="#393632" stroke-opacity="0.2" stroke-miterlimit="10"/>
<path d="M-50.7207 178.096C-29.7346 186.725 -9.99251 199.322 7.55789 215.283C48.9742 253.275 52.8545 288.808 72.0067 290.899C101.601 294.127 100.566 210.125 155.673 186.511C196.092 169.193 246.884 192.87 258.64 198.35C304.506 219.733 317.128 250.552 345.402 246.144C366.086 242.946 368.232 225.071 398.683 211.978C419.882 202.863 440.174 202.339 454.183 203.352" stroke="#393632" stroke-opacity="0.2" stroke-miterlimit="10"/>
<path d="M-49.9434 181.617C-28.9591 190.251 -9.21791 202.848 8.33522 218.804C49.7515 256.796 53.6318 292.329 72.777 294.422C102.355 297.646 101.334 213.614 156.429 190.038C196.855 172.718 247.64 196.398 259.403 201.875C305.262 223.26 317.891 254.077 346.165 249.67C366.842 246.473 368.988 228.599 399.446 215.503C420.652 206.386 440.947 205.87 454.946 206.878" stroke="#393632" stroke-opacity="0.2" stroke-miterlimit="10"/>
<path d="M-49.2021 185.149C-28.216 193.778 -8.47397 206.375 9.07643 222.336C50.4927 260.328 54.3755 295.869 73.5253 297.952C103.12 301.18 102.085 217.178 157.192 193.564C197.611 176.246 248.403 199.923 260.151 205.405C306.018 226.788 318.639 257.607 346.913 253.199C367.597 250.001 369.743 232.126 400.194 219.033C421.393 209.918 441.688 209.402 455.695 210.407" stroke="#393632" stroke-opacity="0.2" stroke-miterlimit="10"/>
<path d="M-48.4395 188.674C-27.4543 197.305 -7.71265 209.902 9.83911 225.861C51.2554 263.853 55.1381 299.394 74.2809 301.479C103.868 304.708 102.847 220.703 157.95 197.099C198.376 179.779 249.161 203.458 260.924 208.936C306.783 230.321 319.411 261.138 347.686 256.73C368.362 253.534 370.508 235.659 400.966 222.564C422.175 213.455 442.467 212.931 456.467 213.938" stroke="#393632" stroke-opacity="0.2" stroke-miterlimit="10"/>
<path d="M-47.6592 192.202C-26.6711 200.826 -6.92816 213.424 10.6194 229.39C52.0333 267.374 55.916 302.915 75.0658 304.998C104.641 308.239 103.62 224.207 158.713 200.624C199.13 183.298 249.922 206.975 261.678 212.455C307.544 233.838 320.166 264.657 348.44 260.249C369.123 257.051 371.27 239.176 401.721 226.082C422.922 216.975 443.215 216.452 457.221 217.457" stroke="#393632" stroke-opacity="0.2" stroke-miterlimit="10"/>
<path d="M-46.918 195.741C-25.9308 204.367 -6.18824 216.965 11.3606 232.928C52.7745 270.912 56.6572 306.453 75.8024 308.546C105.397 311.774 104.369 227.77 159.469 204.158C199.892 186.83 250.677 210.51 262.443 215.995C308.299 237.372 320.93 268.197 349.205 263.79C369.888 260.592 372.03 242.727 402.488 229.631C423.694 220.514 443.986 219.99 457.988 221.006" stroke="#393632" stroke-opacity="0.2" stroke-miterlimit="10"/>
<path d="M-46.165 199.261C-25.1779 207.887 -5.43537 220.485 12.1135 236.448C53.5273 274.432 57.41 309.973 76.5622 312.064C106.149 315.293 105.122 231.29 160.233 207.692C200.65 190.366 251.442 214.043 263.2 219.531C309.064 240.906 321.688 271.733 349.962 267.325C370.646 264.127 372.794 246.261 403.245 233.167C424.444 224.052 444.736 223.528 458.745 224.542" stroke="#393632" stroke-opacity="0.2" stroke-miterlimit="10"/>
<path d="M-45.3789 202.78C-24.3928 211.409 -4.65073 224.007 12.8997 239.968C54.316 277.96 58.1962 313.492 77.3414 315.585C106.92 318.835 105.905 234.801 160.986 211.204C201.413 193.884 252.205 217.561 263.96 223.041C309.817 244.417 322.448 275.243 350.723 270.835C371.406 267.637 373.548 249.772 404.006 236.676C425.212 227.559 445.504 227.035 459.506 228.051" stroke="#393632" stroke-opacity="0.2" stroke-miterlimit="10"/>
<path d="M-44.6387 206.336C-23.6515 214.963 -3.90887 227.56 13.64 243.524C55.0564 281.516 58.9367 317.049 78.089 319.14C107.683 322.368 106.648 238.366 161.755 214.752C202.167 197.41 252.959 221.087 264.715 226.567C310.581 247.95 323.203 278.769 351.477 274.362C372.161 271.163 374.307 253.288 404.758 240.194C425.957 231.08 446.25 230.556 460.259 231.569" stroke="#393632" stroke-opacity="0.2" stroke-miterlimit="10"/>
<path d="M-43.8848 209.838C-22.8987 218.467 -3.15667 231.064 14.3937 247.025C55.8099 285.017 59.6902 320.549 78.8353 322.642C108.43 325.87 107.402 241.867 162.511 218.287C202.937 200.968 253.729 224.645 265.485 230.124C311.344 251.509 323.973 282.326 352.247 277.918C372.93 274.72 375.07 256.848 405.528 243.752C426.734 234.635 447.026 234.111 461.028 235.127" stroke="#393632" stroke-opacity="0.2" stroke-miterlimit="10"/>
<path d="M-43.1025 213.358C-22.1164 221.987 -2.37438 234.585 15.176 250.546C56.5923 288.538 60.475 324.078 79.6248 326.161C109.201 329.429 108.187 245.395 163.263 221.782C203.682 204.464 254.474 228.141 266.23 233.621C312.096 255.003 324.717 285.822 352.992 281.415C373.675 278.217 375.822 260.342 406.272 247.248C427.471 238.133 447.773 237.615 461.773 238.623" stroke="#393632" stroke-opacity="0.2" stroke-miterlimit="10"/>
<path d="M-42.3584 216.929C-21.3732 225.561 -1.63144 238.158 15.9204 254.117C57.3368 292.11 61.2196 327.651 80.3624 329.736C109.957 332.964 108.929 248.959 164.029 225.347C204.443 207.987 255.235 231.664 266.991 237.144C312.857 258.527 325.479 289.346 353.753 284.939C374.437 281.741 376.576 263.868 407.034 250.772C428.241 241.655 448.535 241.139 462.535 242.146" stroke="#393632" stroke-opacity="0.2" stroke-miterlimit="10"/>
<path d="M-41.6113 220.427C-20.6255 229.051 -0.883825 241.646 16.6648 257.606C58.0812 295.598 61.9639 331.139 81.1137 333.222C110.711 336.458 109.676 252.456 164.78 228.834C205.199 211.516 255.991 235.193 267.747 240.673C313.613 262.056 326.242 292.873 354.509 288.468C375.193 285.269 377.339 267.395 407.79 254.301C428.992 245.194 449.291 244.668 463.29 245.676" stroke="#393632" stroke-opacity="0.2" stroke-miterlimit="10"/>
<path d="M-40.8203 223.942C-19.8332 232.568 -0.0906135 245.166 17.4582 261.13C58.872 299.113 62.7548 334.654 81.9 336.747C111.485 340.021 110.471 255.987 165.538 232.367C205.962 215.04 256.754 238.717 268.512 244.205C314.375 265.579 326.997 296.398 355.274 291.999C375.957 288.801 378.097 270.928 408.557 257.84C429.763 248.723 450.055 248.199 464.057 249.215" stroke="#393632" stroke-opacity="0.2" stroke-miterlimit="10"/>
<path d="M-40.0928 227.478C-19.1056 236.104 0.636955 248.702 18.1858 264.665C59.5997 302.649 63.4824 338.19 82.6347 340.281C112.229 343.509 111.201 259.505 166.301 235.893C206.718 218.567 257.502 242.22 269.275 247.73C315.132 269.107 327.763 299.932 356.03 295.527C376.714 292.328 378.862 274.462 409.313 261.368C430.519 252.251 450.812 251.727 464.814 252.743" stroke="#393632" stroke-opacity="0.2" stroke-miterlimit="10"/>
<path d="M-39.3311 231.003C-18.3449 239.632 1.39714 252.229 18.9475 268.191C60.3638 306.182 64.2441 341.715 83.3893 343.808C112.991 347.034 111.956 263.032 167.056 239.42C207.479 222.093 258.271 245.77 270.03 251.257C315.893 272.632 328.517 303.459 356.792 299.052C377.475 295.854 379.617 277.989 410.075 264.893C431.281 255.776 451.573 255.252 465.575 256.268" stroke="#393632" stroke-opacity="0.2" stroke-miterlimit="10"/>
</svg>
